PathFileType	4	(X/Y/Z)	/Users/itak/Documents/Research/Walk-IL/dataset/trc/00084_00006.trc
DataRate	CameraRate	NumFrames	NumMarkers	Units	OrigDataRate	OrigDataStartFrame	OrigNumFrames
100.000000	100.000000	4	54	mm	100.000000	423	484
Frame#	Time	RPSI			LPSI			L3			STRN			T10			C7			CLAV			RBAK			LBAK			LSHO			LUPA			LAEL			LAOL			LWTS			LWPS			LFRA			LIFD			LHPS			LHTS			RSHO			RUPA			RAEL			RAOL			RWTS			RWPS			RFRA			RIFD			RHTS			RHPS			RBHD			LFHD			RFHD			LBHD			LHIP			RHIP			RASI			LASI			LKNE			LTHI			LANK			LTIP			LTOE			LMT1			LMT5			LHEE			RKNE			RTHI			RANK			RTIP			RTOE			RMT1			RMT5			RHEE			*53			
		X1	Y1	Z1	X2	Y2	Z2	X3	Y3	Z3	X4	Y4	Z4	X5	Y5	Z5	X6	Y6	Z6	X7	Y7	Z7	X8	Y8	Z8	X9	Y9	Z9	X10	Y10	Z10	X11	Y11	Z11	X12	Y12	Z12	X13	Y13	Z13	X14	Y14	Z14	X15	Y15	Z15	X16	Y16	Z16	X17	Y17	Z17	X18	Y18	Z18	X19	Y19	Z19	X20	Y20	Z20	X21	Y21	Z21	X22	Y22	Z22	X23	Y23	Z23	X24	Y24	Z24	X25	Y25	Z25	X26	Y26	Z26	X27	Y27	Z27	X28	Y28	Z28	X29	Y29	Z29	X30	Y30	Z30	X31	Y31	Z31	X32	Y32	Z32	X33	Y33	Z33	X34	Y34	Z34	X35	Y35	Z35	X36	Y36	Z36	X37	Y37	Z37	X38	Y38	Z38	X39	Y39	Z39	X40	Y40	Z40	X41	Y41	Z41	X42	Y42	Z42	X43	Y43	Z43	X44	Y44	Z44	X45	Y45	Z45	X46	Y46	Z46	X47	Y47	Z47	X48	Y48	Z48	X49	Y49	Z49	X50	Y50	Z50	X51	Y51	Z51	X52	Y52	Z52	X53	Y53	Z53	X54	Y54	Z54	

424	4.23	621.9052734375	1020.822570800781	-505.2313537597656	446.5768432617188	1011.036315917969	-493.3135070800781	529.75439453125	1074.9140625	-499.5831604003906	536.0418701171875	1282.092651367188	-746.9895629882812	527.0422973632812	1209.46337890625	-477.6853637695312	530.1317749023438	1477.64013671875	-531.6589965820312	535.8453369140625	1395.841064453125	-713.8154907226562	602.2077026367188	1337.206665039062	-469.8277282714844	429.5152893066406	1442.19580078125	-511.9530029296875	359.0431213378906	1451.171630859375	-618.3095092773438	275.6965942382812	1327.264038085938	-609.8190307617188	248.4475402832031	1114.80029296875	-644.2415161132812	329.5063781738281	1092.070434570312	-576.4392700195312	356.680419921875	925.1234130859375	-790.60888671875	294.8277587890625	886.1810913085938	-745.1115112304688	257.5105285644531	1013.824584960938	-693.5114135742188	413.1490173339844	759.3699340820312	-853.5133666992188	316.9880065917969	821.9951782226562	-799.0828247070312	368.7525939941406	853.7060546875	-836.802001953125	706.7841186523438	1439.587036132812	-592.6519165039062	768.550048828125	1369.679077148438	-582.7047729492188	801.7579345703125	1105.024047851562	-565.3143310546875	706.5497436523438	1084.62890625	-580.4585571289062	751.6436767578125	861.8988647460938	-720.9573364257812	804.4464721679688	841.3644409179688	-654.781982421875	808.1251220703125	1024.20947265625	-583.0037841796875	734.3038940429688	673.1371459960938	-744.9533081054688	746.6226196289062	762.7814331054688	-751.1437377929688	803.1416015625	755.9893798828125	-698.6972045898438	480.0818481445312	1657.535034179688	-565.6456909179688	600.9514770507812	1695.244506835938	-740.2676391601562	474.6882019042969	1701.877075195312	-738.9056396484375	616.6513671875	1644.225341796875	-577.362060546875	352.4749755859375	957.393798828125	-601.2089233398438	697.0429077148438	950.2001953125	-574.0491943359375	675.6715698242188	970.1593627929688	-699.07275390625	408.2409362792969	972.1026611328125	-711.241455078125	415.4156188964844	503.2565002441406	-741.0452270507812	372.9421691894531	637.3978881835938	-690.8223876953125	401.2391662597656	45.23340606689453	-622.1206665039062	393.4341125488281	260.1646118164062	-676.2782592773438	408.46240234375	39.24877548217773	-827.6112060546875	462.3634033203125	39.41820907592773	-776.9534912109375	363.8907165527344	38.43770599365234	-724.6610717773438	476.4722900390625	43.55478668212891	-568.44189453125	649.4725952148438	508.1268920898438	-658.9080200195312	692.7669067382812	776.7631225585938	-661.8140869140625	606.9725952148438	36.47747802734375	-540.7527465820312	645.8750610351562	384.5038146972656	-632.1915283203125	588.6260986328125	32.89839935302734	-761.0203247070312	545.2413940429688	43.02250671386719	-702.872314453125	635.2433471679688	38.26895141601562	-660.9365234375	545.79931640625	41.95244216918945	-500.4604797363281	nan	nan	nan	
425	4.24	621.5502319335938	1020.690612792969	-507.6158447265625	446.1040344238281	1011.188842773438	-495.8570861816406	529.2582397460938	1074.6982421875	-502.068359375	535.7894897460938	1282.143432617188	-748.968505859375	526.50634765625	1209.238525390625	-479.8765869140625	529.7562255859375	1477.481323242188	-533.4666748046875	535.601318359375	1395.86474609375	-715.6847534179688	601.678955078125	1336.990966796875	-471.6610717773438	429.1019592285156	1442.035522460938	-513.8211059570312	358.6488037109375	1451.1591796875	-620.1876220703125	275.3545837402344	1327.172485351562	-611.9522705078125	248.3902130126953	1114.750366210938	-646.9719848632812	329.3455810546875	1091.900512695312	-579.0934448242188	357.4361877441406	925.9954223632812	-793.8566284179688	295.2843017578125	886.6845092773438	-748.6621704101562	257.8057250976562	1013.98193359375	-696.6328125	414.4486083984375	760.7619018554688	-857.5316772460938	318.0339965820312	822.826904296875	-802.94775390625	369.7077331542969	854.8570556640625	-840.3807373046875	706.453369140625	1439.353149414062	-594.3392944335938	768.135986328125	1369.385375976562	-584.3501586914062	800.6369018554688	1104.657592773438	-566.7664184570312	705.447509765625	1084.48095703125	-582.08203125	750.2271118164062	861.198974609375	-721.7781982421875	803.1012573242188	840.8715209960938	-655.5347900390625	806.8494262695312	1023.857299804688	-584.3238525390625	732.7705078125	672.37548828125	-745.2622680664062	744.9769287109375	761.811767578125	-751.4639892578125	801.6749267578125	755.2723999023438	-699.0972290039062	479.9107971191406	1657.630615234375	-567.5718383789062	600.7289428710938	1695.119384765625	-742.2811889648438	474.4816284179688	1701.865600585938	-740.859375	616.4887084960938	1644.201416015625	-579.356689453125	352.1198120117188	957.4323120117188	-603.74658203125	696.7813720703125	950.253662109375	-576.1805419921875	675.3681640625	970.1116333007812	-701.5031127929688	407.852783203125	972.0352783203125	-713.7391967773438	415.2569274902344	502.789794921875	-740.3632202148438	372.6868286132812	637.0845947265625	-690.7552490234375	401.6070556640625	45.13697814941406	-622.1500854492188	393.7098693847656	259.7277221679688	-676.0513916015625	408.5077514648438	39.17969512939453	-827.8162841796875	462.4939270019531	39.26356506347656	-777.1035766601562	364.2047729492188	38.3940544128418	-724.759765625	476.8336791992188	43.10958862304688	-568.4725341796875	649.2064208984375	507.9382019042969	-660.1151733398438	692.5717163085938	776.6664428710938	-663.692138671875	606.9246215820312	36.62351989746094	-540.8086547851562	645.5863037109375	384.5166625976562	-633.03662109375	588.62255859375	32.90263366699219	-761.0337524414062	545.209228515625	43.00004577636719	-702.8995971679688	635.1821899414062	38.27112197875977	-660.9725341796875	545.6904907226562	42.03229522705078	-500.5107116699219	nan	nan	nan	
426	4.25	621.179443359375	1020.611389160156	-509.9372863769531	445.6134948730469	1011.378295898438	-498.3231811523438	528.7230834960938	1074.520874023438	-504.5035705566406	535.521728515625	1282.218139648438	-750.9022827148438	525.9290771484375	1209.026611328125	-482.0292053222656	529.335693359375	1477.345336914062	-535.2317504882812	535.341552734375	1395.913452148438	-717.5114135742188	601.1127319335938	1336.787841796875	-473.4490356445312	428.6189575195312	1441.88671875	-515.6538696289062	358.2366943359375	1451.169555664062	-622.0343627929688	274.9935302734375	1327.097290039062	-614.0509033203125	248.3329620361328	1114.708251953125	-649.6302490234375	329.1899108886719	1091.776611328125	-581.684814453125	358.0235595703125	926.6665649414062	-796.8881225585938	295.62939453125	887.0753784179688	-751.9295043945312	258.0250854492188	1014.114685058594	-699.5962524414062	415.4510192871094	761.8438110351562	-861.15576171875	318.8416442871094	823.4717407226562	-806.4656982421875	370.43408203125	855.7451782226562	-843.6657104492188	706.093505859375	1439.16357421875	-595.9577026367188	767.6754760742188	1369.120361328125	-585.9014282226562	799.455078125	1104.320678710938	-568.1157836914062	704.272705078125	1084.338012695312	-583.688232421875	748.8756713867188	860.5045166015625	-722.4995727539062	801.7605590820312	840.4002075195312	-656.1682739257812	805.5313110351562	1023.543518066406	-585.5400390625	731.280029296875	671.6382446289062	-745.4614868164062	743.4158935546875	760.8807373046875	-751.7071533203125	800.2511596679688	754.579833984375	-699.387451171875	479.7229614257812	1657.7529296875	-569.4321899414062	600.4907836914062	1695.0146484375	-744.2138671875	474.2611083984375	1701.881469726562	-742.751708984375	616.2758178710938	1644.184936523438	-581.2559204101562	351.7433776855469	957.4947509765625	-606.18798828125	696.395751953125	950.2484741210938	-578.4166870117188	674.9706420898438	970.0156860351562	-703.8604736328125	407.3846740722656	971.9796752929688	-716.1536865234375	415.0522155761719	502.3970336914062	-739.7625122070312	372.4424743652344	636.8497924804688	-690.7405395507812	401.9745483398438	45.07767486572266	-622.1804809570312	393.9315185546875	259.3830261230469	-675.81005859375	408.5962829589844	39.16822052001953	-827.9891357421875	462.6204528808594	39.13534927368164	-777.2128295898438	364.5093383789062	38.39844512939453	-724.8429565429688	477.1733703613281	42.74294662475586	-568.497802734375	648.8525390625	507.7408752441406	-661.3251342773438	692.2489624023438	776.61962890625	-665.583740234375	606.86962890625	36.74951934814453	-540.8585815429688	645.231689453125	384.5181274414062	-633.8724365234375	588.61865234375	32.91292572021484	-761.0487670898438	545.1732177734375	42.9698371887207	-702.9282836914062	635.1000366210938	38.27430725097656	-661.015869140625	545.555908203125	42.12367630004883	-500.5704040527344	nan	nan	nan	
427	4.26	620.7905883789062	1020.583435058594	-512.1871337890625	445.1216125488281	1011.596130371094	-500.7025451660156	528.1597290039062	1074.386108398438	-506.8775634765625	535.2398681640625	1282.311889648438	-752.7919311523438	525.3253784179688	1208.830322265625	-484.1325988769531	528.87841796875	1477.23388671875	-536.961669921875	535.0662231445312	1395.983154296875	-719.2994384765625	600.5186767578125	1336.60595703125	-475.19921875	428.0835266113281	1441.755249023438	-517.45849609375	357.8164672851562	1451.202270507812	-623.8583374023438	274.6218872070312	1327.043334960938	-616.1221313476562	248.2763671875	1114.676879882812	-652.2124633789062	329.0439147949219	1091.698608398438	-584.2080078125	358.4446105957031	927.1306762695312	-799.6968383789062	295.8843688964844	887.3426513671875	-754.9094848632812	258.1725158691406	1014.222412109375	-702.395263671875	416.1580810546875	762.6049194335938	-864.3800048828125	319.4109497070312	823.9201049804688	-809.6290283203125	370.941650390625	856.3665771484375	-846.6539916992188	705.7106323242188	1439.020629882812	-597.52294921875	767.177734375	1368.889038085938	-587.3750610351562	798.2153930664062	1104.008544921875	-569.3696899414062	703.0241088867188	1084.209106445312	-585.2681884765625	747.5791625976562	859.7941284179688	-723.11328125	800.4278564453125	839.94970703125	-656.6930541992188	804.1793212890625	1023.277770996094	-586.66162109375	729.833251953125	670.926513671875	-745.5615844726562	741.9501953125	759.994384765625	-751.8907470703125	798.8710327148438	753.9127807617188	-699.5786743164062	479.5240478515625	1657.887817382812	-571.2279663085938	600.234619140625	1694.932495117188	-746.06298828125	474.0283813476562	1701.92724609375	-744.58203125	616.0182495117188	1644.1708984375	-583.0682983398438	351.3585510253906	957.57763671875	-608.522216796875	695.9354858398438	950.22216796875	-580.7178955078125	674.4808959960938	969.874755859375	-706.1410522460938	406.8462219238281	971.9407348632812	-718.4847412109375	414.7925720214844	502.0704650878906	-739.2755737304688	372.2271728515625	636.692138671875	-690.8264770507812	402.3019409179688	45.04040145874023	-622.211181640625	394.065673828125	259.12109375	-675.5948486328125	408.6964721679688	39.17422485351562	-828.1408081054688	462.7275390625	39.02986907958984	-777.2927856445312	364.7715759277344	38.41980361938477	-724.913330078125	477.4550476074219	42.46545028686523	-568.51904296875	648.4017944335938	507.5418701171875	-662.5180053710938	691.7780151367188	776.6119384765625	-667.4957885742188	606.8043823242188	36.85674667358398	-540.8994750976562	644.8162231445312	384.4976196289062	-634.6902465820312	588.6148681640625	32.92926788330078	-761.0663452148438	545.13037109375	42.93020248413086	-702.9573364257812	634.99462890625	38.27798461914062	-661.0661010742188	545.3941650390625	42.22661590576172	-500.635498046875	nan	nan	nan	
